<svg xmlns="http://www.w3.org/2000/svg" width="64" height="64" fill="none" viewBox="0 0 64 64" id="moon"><rect width="48" height="48" x="8" y="8" fill="url(#paint0_linear)" rx="8"></rect><g filter="url(#filter0_if)"><rect width="48" height="48" x="8" y="8" fill="#fff" fill-opacity=".08" rx="8"></rect></g><g filter="url(#filter1_if)"><rect width="48" height="48" x="8" y="8" fill="#fff" fill-opacity=".08" rx="8"></rect></g><g filter="url(#filter2_i)"><path fill="#fff" d="M44.0385 34.7867C43.9998 34.661 43.9367 34.5442 43.8528 34.443C43.7689 34.3417 43.6659 34.258 43.5496 34.1966C43.4334 34.1352 43.3062 34.0973 43.1752 34.0851C43.0443 34.0729 42.9123 34.0866 42.7867 34.1255C40.997 34.6174 39.1089 34.6263 37.3147 34.1513C35.5205 33.6763 33.8841 32.7344 32.5723 31.4214C31.2604 30.1085 30.3199 28.4713 29.8464 26.6767C29.3729 24.882 29.3835 22.994 29.8769 21.2047C29.9288 21.0317 29.9328 20.8479 29.8886 20.6728C29.8444 20.4976 29.7536 20.3378 29.6259 20.2101C29.4982 20.0824 29.3382 19.9917 29.1631 19.9475C28.988 19.9034 28.8042 19.9075 28.6312 19.9595C26.529 20.548 24.6177 21.6767 23.0872 23.2333C21.5567 24.7899 20.4605 26.7201 19.9076 28.8319C19.3547 30.9437 19.3644 33.1634 19.9358 35.2703C20.5071 37.3771 21.6201 39.2977 23.1642 40.8408C24.7082 42.384 26.6293 43.4959 28.7365 44.0661C30.8437 44.6362 33.0635 44.6447 35.1749 44.0906C37.2864 43.5365 39.216 42.4392 40.7717 40.9079C42.3274 39.3765 43.4551 37.4645 44.0424 35.3621C44.0975 35.174 44.0961 34.9739 44.0385 34.7867Z"></path></g><defs><filter id="filter0_if" width="56" height="56" x="4" y="4" color-interpolation-filters="sRGB" filterUnits="userSpaceOnUse"><feFlood flood-opacity="0" result="BackgroundImageFix"></feFlood><feBlend in="SourceGraphic" in2="BackgroundImageFix" result="shape"></feBlend><feColorMatrix in="SourceAlpha" result="hardAlpha" values="0 0 0 0 0 0 0 0 0 0 0 0 0 0 0 0 0 0 127 0"></feColorMatrix><feMorphology in="SourceAlpha" radius="1" result="effect1_innerShadow"></feMorphology><feOffset dx="4" dy="4"></feOffset><feGaussianBlur stdDeviation="4"></feGaussianBlur><feComposite in2="hardAlpha" k2="-1" k3="1" operator="arithmetic"></feComposite><feColorMatrix values="0 0 0 0 1 0 0 0 0 1 0 0 0 0 1 0 0 0 0.32 0"></feColorMatrix><feBlend in2="shape" result="effect1_innerShadow"></feBlend><feGaussianBlur result="effect2_foregroundBlur" stdDeviation="2"></feGaussianBlur></filter><filter id="filter1_if" width="56" height="56" x="4" y="4" color-interpolation-filters="sRGB" filterUnits="userSpaceOnUse"><feFlood flood-opacity="0" result="BackgroundImageFix"></feFlood><feBlend in="SourceGraphic" in2="BackgroundImageFix" result="shape"></feBlend><feColorMatrix in="SourceAlpha" result="hardAlpha" values="0 0 0 0 0 0 0 0 0 0 0 0 0 0 0 0 0 0 127 0"></feColorMatrix><feMorphology in="SourceAlpha" radius="1" result="effect1_innerShadow"></feMorphology><feOffset dx="-4" dy="-4"></feOffset><feGaussianBlur stdDeviation="4"></feGaussianBlur><feComposite in2="hardAlpha" k2="-1" k3="1" operator="arithmetic"></feComposite><feColorMatrix values="0 0 0 0 1 0 0 0 0 1 0 0 0 0 1 0 0 0 0.32 0"></feColorMatrix><feBlend in2="shape" result="effect1_innerShadow"></feBlend><feGaussianBlur result="effect2_foregroundBlur" stdDeviation="2"></feGaussianBlur></filter><filter id="filter2_i" width="25.583" height="25.583" x="18.5" y="18.917" color-interpolation-filters="sRGB" filterUnits="userSpaceOnUse"><feFlood flood-opacity="0" result="BackgroundImageFix"></feFlood><feBlend in="SourceGraphic" in2="BackgroundImageFix" result="shape"></feBlend><feColorMatrix in="SourceAlpha" result="hardAlpha" values="0 0 0 0 0 0 0 0 0 0 0 0 0 0 0 0 0 0 127 0"></feColorMatrix><feOffset dx="-1" dy="-1"></feOffset><feGaussianBlur stdDeviation="1"></feGaussianBlur><feComposite in2="hardAlpha" k2="-1" k3="1" operator="arithmetic"></feComposite><feColorMatrix values="0 0 0 0 0 0 0 0 0 0 0 0 0 0 0 0 0 0 0.16 0"></feColorMatrix><feBlend in2="shape" result="effect1_innerShadow"></feBlend></filter><linearGradient id="paint0_linear" x1="8" x2="56" y1="8" y2="56" gradientUnits="userSpaceOnUse"><stop stop-color="#00E0FF"></stop><stop offset="1" stop-color="#0047FF"></stop></linearGradient></defs></svg>