<?xml version="1.0" encoding="iso-8859-1"?>
<!-- Uploaded to: SVG Repo, www.svgrepo.com, Generator: SVG Repo Mixer Tools -->
<svg version="1.1" id="Layer_1" xmlns="http://www.w3.org/2000/svg" xmlns:xlink="http://www.w3.org/1999/xlink" 
	 viewBox="0 0 509 509" xml:space="preserve">
<circle style="fill:#6EB1E1;" cx="254.5" cy="254.5" r="254.5"/>
<rect x="173.6" y="156.1" style="fill:#646B79;" width="309" height="156.6"/>
<g>
	<rect x="185.8" y="166.2" style="fill:#414753;" width="7.6" height="136.3"/>
	<rect x="207.1" y="166.2" style="fill:#414753;" width="7.6" height="136.3"/>
	<rect x="228.4" y="166.2" style="fill:#414753;" width="7.6" height="136.3"/>
	<rect x="249.7" y="166.2" style="fill:#414753;" width="7.6" height="136.3"/>
	<rect x="271" y="166.2" style="fill:#414753;" width="7.6" height="136.3"/>
	<rect x="292.3" y="166.2" style="fill:#414753;" width="7.6" height="136.3"/>
	<rect x="313.6" y="166.2" style="fill:#414753;" width="7.6" height="136.3"/>
	<rect x="334.9" y="166.2" style="fill:#414753;" width="7.6" height="136.3"/>
	<rect x="356.2" y="166.2" style="fill:#414753;" width="7.6" height="136.3"/>
	<rect x="377.5" y="166.2" style="fill:#414753;" width="7.6" height="136.3"/>
	<rect x="398.8" y="166.2" style="fill:#414753;" width="7.6" height="136.3"/>
	<rect x="420.1" y="166.2" style="fill:#414753;" width="7.6" height="136.3"/>
	<rect x="441.4" y="166.2" style="fill:#414753;" width="7.6" height="136.3"/>
	<rect x="462.7" y="166.2" style="fill:#414753;" width="7.6" height="136.3"/>
	<rect x="167.5" y="312.7" style="fill:#414753;" width="315.1" height="23"/>
</g>
<path style="fill:#F0582F;" d="M167.5,196.4h-50.1c-7.2,0-13.8,4.1-16.9,10.6l-16.4,34.5c-3.1,6.5-9.7,10.6-16.9,10.6H45.1
	c-10.3,0-18.7,8.4-18.7,18.7v64.9h141.1V196.4z"/>
<g>
	<path style="fill:#6EB1E1;" d="M135.2,206.5h-17.8c-3.3,0-6.3,1.9-7.7,4.8l-16.5,34.5c-1,2.1-2.2,3.9-3.6,5.6h45.5v-44.9H135.2z"/>
	<rect x="141.8" y="206.5" style="fill:#6EB1E1;" width="15.5" height="45"/>
</g>
<rect x="26.4" y="312.7" style="fill:#414753;" width="141.1" height="23"/>
<path style="fill:#D54232;" d="M167.5,196.4h-50.1c0,0,4.6-26.9,50.1-40.3V196.4z"/>
<path style="fill:#0A173C;" d="M102.9,327.5c0-17.3-14.1-31.4-31.4-31.4s-31.4,14-31.4,31.4c0,2.9,0.4,5.6,1.1,8.2h60.5
	C102.5,333.1,102.9,330.3,102.9,327.5z"/>
<circle style="fill:#393D47;" cx="71.5" cy="327.5" r="25.4"/>
<circle style="fill:#333842;" cx="71.5" cy="327.5" r="19"/>
<circle style="fill:#F1F3F7;" cx="71.5" cy="327.5" r="14.8"/>
<g>
	<circle style="fill:#BDBDBE;" cx="71.5" cy="327.5" r="4.1"/>
	<circle style="fill:#BDBDBE;" cx="64.7" cy="320.8" r="2.4"/>
	<circle style="fill:#BDBDBE;" cx="78.4" cy="334.5" r="2.4"/>
	<circle style="fill:#BDBDBE;" cx="78.4" cy="320.8" r="2.4"/>
	<circle style="fill:#BDBDBE;" cx="64.7" cy="334.5" r="2.4"/>
</g>
<path style="fill:#0A173C;" d="M355.4,296.1c-17.3,0-31.4,14-31.4,31.4c0,2.9,0.4,5.6,1.1,8.2h60.5c0.7-2.6,1.1-5.4,1.1-8.2
	C386.8,310.1,372.7,296.1,355.4,296.1z"/>
<circle style="fill:#393D47;" cx="355.4" cy="327.5" r="25.4"/>
<circle style="fill:#333842;" cx="355.4" cy="327.5" r="19"/>
<circle style="fill:#F1F3F7;" cx="355.4" cy="327.5" r="14.8"/>
<g>
	<circle style="fill:#BDBDBE;" cx="355.4" cy="327.5" r="4.1"/>
	<circle style="fill:#BDBDBE;" cx="348.5" cy="320.8" r="2.4"/>
	<circle style="fill:#BDBDBE;" cx="362.2" cy="334.5" r="2.4"/>
	<circle style="fill:#BDBDBE;" cx="362.2" cy="320.8" r="2.4"/>
	<circle style="fill:#BDBDBE;" cx="348.5" cy="334.5" r="2.4"/>
</g>
<path style="fill:#0A173C;" d="M419.9,296.1c-17.3,0-31.4,14-31.4,31.4c0,2.9,0.4,5.6,1.1,8.2h60.5c0.7-2.6,1.1-5.4,1.1-8.2
	C451.2,310.1,437.2,296.1,419.9,296.1z"/>
<circle style="fill:#393D47;" cx="419.9" cy="327.5" r="25.4"/>
<circle style="fill:#333842;" cx="419.9" cy="327.5" r="19"/>
<circle style="fill:#F1F3F7;" cx="419.9" cy="327.5" r="14.8"/>
<g>
	<circle style="fill:#BDBDBE;" cx="419.9" cy="327.5" r="4.1"/>
	<circle style="fill:#BDBDBE;" cx="413" cy="320.8" r="2.4"/>
	<circle style="fill:#BDBDBE;" cx="426.7" cy="334.5" r="2.4"/>
	<circle style="fill:#BDBDBE;" cx="426.7" cy="320.8" r="2.4"/>
	<circle style="fill:#BDBDBE;" cx="413" cy="334.5" r="2.4"/>
</g>
</svg>